# xmcd CD database file
#
# Track frame offsets:
#	187
#	25835
#	47360
#
# Disc length: 797 seconds
#
# Revision: 1
# Processed by: cddbd v1.5.1PL2 Copyright (c) Steve Scherf et al.
# Submitted via: CDex 1.60beta1-cs1
#
DISCID=17031b03
DTITLE=ARB - TOKYO OUTSIDER
DYEAR=1998
DGENRE=Rock
TTITLE0=TOKYO OUTSIDER
TTITLE1=スケアクロウ
TTITLE2=魂こがして　Real Studio Live
EXTD=YEAR: 1998
EXTT0=
EXTT1=
EXTT2=
PLAYORDER=
